<svg version="1.1" viewBox="0.0 0.0 960.0 540.0" fill="none" stroke="none" stroke-linecap="square" stroke-miterlimit="10" xmlns:xlink="http://www.w3.org/1999/xlink" xmlns="http://www.w3.org/2000/svg"><clipPath id="p.0"><path d="m0 0l960.0 0l0 540.0l-960.0 0l0 -540.0z" clip-rule="nonzero"/></clipPath><g clip-path="url(#p.0)"><path fill="#ffffff" d="m0 0l960.0 0l0 540.0l-960.0 0z" fill-rule="evenodd"/><path fill="#000000" fill-opacity="0.0" d="m0 0l960.0 0l0 540.0l-960.0 0z" fill-rule="evenodd"/><path fill="#000000" d="m126.336426 213.98938l0 2.3125l-13.5625 0l0 110.84375l13.5625 0l0 2.296875l-16.125 0l0 -115.453125l16.125 0zm28.54538 35.453125l0 66.4375l-2.8125 0l0 -66.4375l2.8125 0zm-1.40625 -26.234375q1.28125 0 1.984375 0.765625q0.703125 0.765625 0.703125 1.796875q0 1.015625 -0.703125 1.71875q-0.703125 0.703125 -1.984375 0.703125q-1.15625 0 -1.859375 -0.703125q-0.703125 -0.703125 -0.703125 -1.71875q0 -1.03125 0.703125 -1.796875q0.703125 -0.765625 1.859375 -0.765625zm58.742752 24.953125q8.96875 0 13.375 5.25q4.421875 5.25 4.421875 15.234375l0 47.234375l-2.8125 0l0 -46.96875q0 -18.1875 -14.984375 -18.1875q-7.671875 0 -13.4375 4.109375q-5.75 4.09375 -10.875 11.890625l0 49.15625l-2.8125 0l0 -66.4375l2.421875 0l0.265625 13.578125q9.984375 -14.859375 24.4375 -14.859375zm68.35237 0q5.375 0 9.46875 1.546875q4.109375 1.53125 7.8125 4.859375l-1.65625 1.921875q-3.328125 -2.953125 -7.046875 -4.359375q-3.703125 -1.40625 -8.4375 -1.40625q-10.890625 0 -17.484375 8.453125q-6.59375 8.453125 -6.59375 23.8125q0 15.09375 6.59375 23.296875q6.59375 8.1875 17.34375 8.1875q9.21875 0 16.265625 -6.140625l1.65625 1.921875q-7.796875 6.90625 -17.78125 6.90625q-8.078125 0 -14.15625 -4.03125q-6.078125 -4.03125 -9.46875 -11.765625q-3.3906097 -7.75 -3.3906097 -18.375q0 -10.625 3.3281097 -18.5q3.328125 -7.875 9.40625 -12.09375q6.078125 -4.234375 14.140625 -4.234375zm46.86078 69.0q-4.234375 0 -6.734375 -2.625q-2.484375 -2.625 -2.484375 -7.875l0 -84.609375l2.8125 -0.375l0 84.859375q0 7.9375 6.53125 7.9375q2.6875 0 5.109375 -1.03125l0.78125 2.4375q-3.328125 1.28125 -6.015625 1.28125zm70.3905 -1.28125l-2.5625 0l0 -13.5625q-3.703125 6.78125 -9.46875 10.8125q-5.765625 4.03125 -13.5625 4.03125q-8.84375 0 -13.765625 -5.25q-4.921875 -5.25 -4.921875 -15.109375l0 -47.359375l2.8125 0l0 47.109375q0 8.953125 4.15625 13.4375q4.15625 4.484375 12.09375 4.484375q7.296875 0 12.734375 -4.09375q5.453125 -4.09375 9.671875 -11.53125l0 -49.40625l2.8125 0l0 66.4375zm73.35303 -93.828125l0 93.828125l-2.4375 0l-0.390625 -11.390625q-6.90625 12.671875 -20.984375 12.671875q-11.265625 0 -17.921875 -9.15625q-6.65625 -9.15625 -6.65625 -25.15625q0 -10.234375 3.0625 -18.109375q3.078125 -7.875 8.96875 -12.21875q5.890625 -4.359375 13.828125 -4.359375q12.671875 0 19.703125 10.625l0 -37.109375l2.828125 0.375zm-23.6875 92.421875q7.421875 0 12.34375 -3.640625q4.9375 -3.65625 8.515625 -10.703125l0 -37.75q-7.421875 -11.65625 -19.578125 -11.65625q-6.90625 0 -12.15625 3.90625q-5.25 3.90625 -8.078125 11.203125q-2.8125 7.296875 -2.8125 17.015625q0 14.984375 5.828125 23.3125q5.828125 8.3125 15.9375 8.3125zm56.70639 -65.03125l0 66.4375l-2.8125 0l0 -66.4375l2.8125 0zm-1.40625 -26.234375q1.28125 0 1.984375 0.765625q0.703125 0.765625 0.703125 1.796875q0 1.015625 -0.703125 1.71875q-0.703125 0.703125 -1.984375 0.703125q-1.15625 0 -1.859375 -0.703125q-0.703125 -0.703125 -0.703125 -1.71875q0 -1.03125 0.703125 -1.796875q0.703125 -0.765625 1.859375 -0.765625zm58.742767 24.953125q8.96875 0 13.375 5.25q4.421875 5.25 4.421875 15.234375l0 47.234375l-2.8125 0l0 -46.96875q0 -18.1875 -14.984375 -18.1875q-7.671875 0 -13.4375 4.109375q-5.75 4.09375 -10.875 11.890625l0 49.15625l-2.8125 0l0 -66.4375l2.421875 0l0.265625 13.578125q9.984375 -14.859375 24.4375 -14.859375zm92.41492 0.390625q-6.90625 1.796875 -19.578125 1.796875q6.40625 2.171875 9.859375 7.171875q3.453125 4.984375 3.453125 12.796875q0 9.84375 -6.078125 15.546875q-6.078125 5.703125 -16.578125 5.703125q-4.734375 0 -9.46875 -1.796875q-6.65625 3.703125 -6.65625 9.59375q0 3.84375 3.0625 6.09375q3.078125 2.234375 9.609375 2.234375l11.140625 0q9.203125 0 14.390625 4.21875q5.1875 4.21875 5.1875 11.265625q0 8.703125 -6.59375 13.3125q-6.59375 4.609375 -19.90625 4.609375q-13.953125 0 -20.234375 -4.09375q-6.265625 -4.09375 -6.265625 -13.703125l2.828125 0q0.125 5.640625 2.484375 8.96875q2.375 3.328125 7.421875 4.734375q5.0625 1.40625 13.765625 1.40625q23.6875 0 23.6875 -15.109375q0 -6.015625 -4.484375 -9.46875q-4.484375 -3.453125 -12.421875 -3.453125l-11.265625 0q-7.421875 0 -11.390625 -2.9375q-3.96875 -2.953125 -3.96875 -7.6875q0 -6.40625 7.296875 -11.015625q-11.125 -5.75 -11.125 -18.6875q0 -9.859375 6.140625 -15.875q6.140625 -6.015625 16.515625 -6.015625q13.046875 0.140625 18.171875 -0.5q5.125 -0.640625 9.984375 -2.1875l1.015625 3.078125zm-29.046875 2.171875q-9.609375 0 -14.796875 5.3125q-5.171875 5.3125 -5.171875 14.015625q0 8.96875 5.75 13.96875q5.765625 4.984375 14.34375 4.984375q9.21875 0 14.46875 -4.921875q5.25 -4.9375 5.25 -13.765625q0 -9.21875 -5.3125 -14.40625q-5.3125 -5.1875 -14.53125 -5.1875zm41.604614 60.296875q1.40625 0 2.234375 0.828125q0.828125 0.828125 0.828125 2.234375q0 1.15625 -0.828125 1.984375q-0.828125 0.84375 -2.234375 0.84375q-1.28125 0 -2.125 -0.84375q-0.828125 -0.828125 -0.828125 -1.984375q0 -1.40625 0.828125 -2.234375q0.84375 -0.828125 2.125 -0.828125zm52.72339 -62.859375q8.96875 0 13.375 5.25q4.421875 5.25 4.421875 15.234375l0 47.234375l-2.8125 0l0 -46.96875q0 -18.1875 -14.984375 -18.1875q-7.671875 0 -13.4375 4.109375q-5.75 4.09375 -10.875 11.890625l0 49.15625l-2.8125 0l0 -66.4375l2.421875 0l0.265625 13.578125q9.984375 -14.859375 24.4375 -14.859375zm68.10242 0q12.28125 0 19.390625 8.90625q7.109375 8.890625 7.109375 25.28125q0 16.375 -7.171875 25.59375q-7.171875 9.21875 -19.453125 9.21875q-12.421875 0 -19.46875 -9.15625q-7.03125 -9.15625 -7.03125 -25.28125q0 -16.25 7.234375 -25.40625q7.234375 -9.15625 19.390625 -9.15625zm0 2.5625q-11.015625 0 -17.359375 8.328125q-6.328125 8.3125 -6.328125 23.671875q0 15.109375 6.203125 23.4375q6.21875 8.3125 17.359375 8.3125q11.0 0 17.328125 -8.3125q6.34375 -8.328125 6.34375 -23.8125q0 -15.109375 -6.203125 -23.359375q-6.203125 -8.265625 -17.34375 -8.265625zm62.461243 -36.734375l0 115.453125l-16.125 0l0 -2.296875l13.5625 0l0 -110.84375l-13.5625 0l0 -2.3125l16.125 0z" fill-rule="nonzero"/></g></svg>